<svg 
 xmlns="http://www.w3.org/2000/svg"
 xmlns:xlink="http://www.w3.org/1999/xlink"
 width="584px" height="423px">
<path fill-rule="evenodd"  fill="rgb(248, 248, 248)"
 d="M566.611,378.561 L480.192,378.561 C470.578,378.561 462.787,370.756 462.787,361.138 C462.787,351.509 470.578,343.716 480.192,343.716 L542.061,343.716 C529.721,327.121 504.390,310.777 490.192,303.698 C481.597,299.410 478.084,288.954 482.356,280.345 C486.634,271.736 497.070,268.219 505.665,272.484 C513.682,276.465 584.016,312.740 584.016,361.138 C584.016,370.756 576.225,378.561 566.611,378.561 ZM419.399,277.610 C395.853,277.610 373.722,268.435 357.077,251.773 C350.284,244.967 350.284,233.931 357.082,227.125 C363.881,220.330 374.901,220.330 381.700,227.136 C391.767,237.220 405.155,242.766 419.399,242.766 C448.804,242.766 472.725,218.822 472.725,189.376 C472.725,159.954 448.804,136.009 419.399,136.009 C412.204,136.009 405.218,137.428 398.641,140.206 C389.802,143.949 379.575,139.798 375.836,130.928 C372.097,122.069 376.244,111.849 385.099,108.106 C395.984,103.501 407.524,101.165 419.399,101.165 C467.999,101.165 507.535,140.739 507.535,189.376 C507.535,238.037 467.999,277.610 419.399,277.610 ZM226.675,269.013 C152.744,269.013 92.597,208.807 92.597,134.806 C92.597,60.807 152.744,0.600 226.675,0.600 C300.607,0.600 360.754,60.807 360.754,134.806 C360.754,208.807 300.607,269.013 226.675,269.013 ZM226.675,47.060 C178.336,47.060 139.010,86.420 139.010,134.806 C139.010,183.194 178.336,222.554 226.675,222.554 C275.015,222.554 314.341,183.194 314.341,134.806 C314.341,86.420 275.015,47.060 226.675,47.060 ZM187.270,278.405 L226.675,311.787 L266.092,278.405 C272.176,273.244 280.499,271.576 288.097,274.003 C326.777,286.288 452.986,331.658 452.986,399.431 C452.986,412.260 442.594,422.661 429.779,422.661 L23.578,422.661 C10.762,422.661 0.371,412.260 0.371,399.431 C0.371,331.658 126.580,286.288 165.259,274.003 C172.845,271.576 181.169,273.244 187.270,278.405 ZM62.796,376.201 L390.561,376.201 C368.493,357.520 326.833,336.581 286.103,322.312 L241.661,359.947 C233.015,367.275 220.341,367.275 211.684,359.947 L167.254,322.312 C126.523,336.581 84.858,357.520 62.796,376.201 Z"/>
</svg>