<svg 
 xmlns="http://www.w3.org/2000/svg"
 xmlns:xlink="http://www.w3.org/1999/xlink"
 width="30px" height="30px">
<path fill-rule="evenodd"  fill="rgb(119, 119, 119)"
 d="M15.977,29.865 C8.548,29.865 2.504,24.075 2.504,16.958 C2.504,16.278 3.055,15.727 3.735,15.727 L15.313,15.727 L15.313,4.150 C15.313,3.470 15.864,2.920 16.543,2.920 C23.539,2.920 29.450,9.089 29.450,16.392 C29.450,23.821 23.406,29.865 15.977,29.865 ZM17.774,5.460 L17.774,16.958 C17.774,17.637 17.223,18.189 16.543,18.189 L5.042,18.189 C5.686,23.371 10.344,27.404 15.977,27.404 C22.049,27.404 26.989,22.464 26.989,16.392 C26.989,10.861 22.882,6.126 17.774,5.460 ZM12.583,14.074 L1.635,14.074 C1.040,14.074 0.558,13.592 0.558,12.997 C0.558,6.367 5.952,0.973 12.583,0.973 C13.177,0.973 13.660,1.455 13.660,2.050 L13.660,12.997 C13.660,13.592 13.177,14.074 12.583,14.074 ZM11.506,3.185 C6.921,3.685 3.270,7.336 2.770,11.921 L11.506,11.921 L11.506,3.185 Z"/>
</svg>