<svg 
 xmlns="http://www.w3.org/2000/svg"
 xmlns:xlink="http://www.w3.org/1999/xlink"
 width="30px" height="30px">
<path fill-rule="evenodd"  fill="rgb(119, 119, 119)"
 d="M29.468,17.907 C29.358,18.336 28.998,18.655 28.559,18.712 L26.186,19.023 C26.137,19.155 26.104,19.241 26.104,19.241 L26.066,19.332 C26.062,19.342 26.058,19.352 26.054,19.361 C26.054,19.361 26.017,19.445 25.958,19.573 L27.417,21.470 C27.687,21.821 27.716,22.301 27.490,22.683 C27.466,22.724 26.866,23.729 25.529,25.067 C24.191,26.404 23.187,27.003 23.145,27.028 C22.764,27.254 22.283,27.225 21.932,26.954 L20.035,25.496 C19.907,25.555 19.824,25.592 19.824,25.592 L19.725,25.633 C19.715,25.638 19.622,25.673 19.485,25.724 L19.175,28.097 C19.117,28.536 18.799,28.896 18.370,29.007 C18.322,29.018 17.187,29.305 15.297,29.305 C13.405,29.305 12.271,29.018 12.223,29.007 C11.794,28.896 11.476,28.536 11.418,28.097 L11.108,25.724 C10.975,25.675 10.890,25.641 10.890,25.641 L10.799,25.605 C10.789,25.600 10.779,25.596 10.769,25.592 C10.769,25.592 10.686,25.555 10.557,25.496 L8.661,26.954 C8.310,27.224 7.830,27.254 7.449,27.029 C7.407,27.004 6.401,26.405 5.063,25.067 C3.727,23.729 3.127,22.724 3.102,22.683 C2.877,22.301 2.906,21.821 3.176,21.470 L4.634,19.573 C4.576,19.445 4.539,19.362 4.539,19.362 C4.534,19.352 4.530,19.342 4.526,19.332 L4.496,19.260 C4.493,19.251 4.458,19.159 4.406,19.023 L2.034,18.712 C1.595,18.655 1.235,18.336 1.124,17.908 C1.112,17.860 0.826,16.726 0.826,14.834 C0.826,12.943 1.112,11.808 1.124,11.761 C1.235,11.332 1.595,11.013 2.034,10.956 L4.406,10.645 C4.456,10.513 4.489,10.427 4.489,10.427 C4.505,10.386 4.523,10.346 4.544,10.308 L4.539,10.307 C4.539,10.307 4.576,10.223 4.634,10.095 L3.176,8.199 C2.906,7.848 2.877,7.368 3.102,6.986 C3.127,6.944 3.727,5.939 5.063,4.602 C6.402,3.264 7.407,2.665 7.448,2.639 C7.830,2.415 8.310,2.444 8.661,2.713 L10.558,4.172 C10.686,4.113 10.769,4.076 10.769,4.076 C10.779,4.072 10.789,4.068 10.799,4.064 L10.871,4.034 C10.880,4.031 10.971,3.995 11.108,3.944 L11.418,1.571 C11.475,1.133 11.794,0.772 12.223,0.662 C12.270,0.650 13.405,0.363 15.297,0.363 C17.187,0.363 18.322,0.650 18.370,0.662 C18.799,0.772 19.117,1.133 19.175,1.571 L19.485,3.944 C19.617,3.993 19.702,4.026 19.702,4.026 L19.790,4.062 C19.802,4.067 19.813,4.072 19.824,4.076 C19.824,4.076 19.908,4.113 20.035,4.172 L21.932,2.714 C22.283,2.444 22.763,2.414 23.144,2.639 C23.186,2.665 24.192,3.264 25.529,4.601 C26.866,5.939 27.466,6.944 27.490,6.986 C27.716,7.368 27.686,7.848 27.416,8.199 L25.958,10.095 C26.017,10.224 26.054,10.307 26.054,10.307 L26.094,10.404 C26.099,10.415 26.135,10.507 26.186,10.645 L28.559,10.956 C28.998,11.013 29.358,11.332 29.468,11.761 C29.480,11.808 29.767,12.943 29.767,14.834 C29.767,16.726 29.480,17.860 29.468,17.907 ZM27.487,13.003 L25.248,12.711 C24.839,12.657 24.496,12.375 24.362,11.985 C24.232,11.602 24.083,11.215 24.080,11.209 L24.060,11.161 L24.060,11.163 C24.060,11.163 23.896,10.792 23.722,10.440 C23.539,10.069 23.583,9.626 23.835,9.299 L25.211,7.509 C24.945,7.163 24.544,6.685 23.995,6.135 C23.446,5.586 22.968,5.185 22.622,4.919 L20.832,6.295 C20.504,6.547 20.062,6.591 19.692,6.409 C19.370,6.250 19.036,6.100 18.960,6.066 L18.905,6.044 L18.905,6.044 C18.905,6.044 18.523,5.897 18.145,5.768 C17.755,5.635 17.473,5.291 17.420,4.883 L17.127,2.643 C16.695,2.587 16.074,2.532 15.297,2.532 C14.519,2.532 13.898,2.587 13.465,2.643 L13.173,4.883 C13.119,5.291 12.838,5.635 12.447,5.768 C12.065,5.899 11.678,6.047 11.671,6.050 L11.636,6.065 C11.568,6.095 11.228,6.247 10.902,6.408 C10.531,6.590 10.089,6.547 9.761,6.296 L7.971,4.919 C7.625,5.185 7.147,5.586 6.597,6.135 C6.048,6.685 5.648,7.162 5.381,7.509 L6.758,9.299 C7.010,9.627 7.054,10.069 6.871,10.440 C6.691,10.805 6.521,11.186 6.521,11.186 L6.521,11.186 C6.518,11.194 6.515,11.202 6.512,11.210 C6.510,11.217 6.360,11.602 6.231,11.984 C6.098,12.375 5.755,12.657 5.345,12.711 L3.106,13.003 C3.049,13.436 2.995,14.057 2.995,14.835 C2.995,15.611 3.049,16.232 3.105,16.665 L5.345,16.958 C5.755,17.011 6.099,17.293 6.231,17.685 C6.361,18.066 6.509,18.452 6.512,18.458 L6.527,18.495 C6.558,18.563 6.710,18.902 6.871,19.228 C7.054,19.599 7.010,20.041 6.758,20.370 L5.381,22.160 C5.648,22.505 6.048,22.983 6.598,23.533 C7.147,24.082 7.625,24.483 7.971,24.749 L9.761,23.373 C10.089,23.121 10.533,23.078 10.902,23.260 C11.226,23.419 11.562,23.570 11.634,23.603 L11.692,23.626 C11.692,23.626 12.071,23.772 12.447,23.900 C12.838,24.033 13.119,24.377 13.173,24.786 L13.465,27.025 C13.898,27.081 14.519,27.136 15.297,27.136 C16.074,27.136 16.694,27.081 17.127,27.025 L17.420,24.786 C17.473,24.377 17.755,24.033 18.145,23.900 C18.531,23.769 18.921,23.618 18.921,23.618 L18.970,23.598 C18.970,23.599 18.969,23.599 18.969,23.599 C18.969,23.599 19.337,23.434 19.691,23.259 C20.062,23.077 20.504,23.121 20.832,23.373 L22.622,24.749 C22.967,24.483 23.445,24.082 23.995,23.532 C24.544,22.983 24.945,22.506 25.211,22.160 L23.835,20.370 C23.583,20.042 23.539,19.600 23.722,19.229 C23.881,18.905 24.033,18.568 24.065,18.496 L24.088,18.439 C24.088,18.439 24.234,18.060 24.362,17.683 C24.495,17.292 24.839,17.011 25.248,16.958 L27.487,16.665 C27.543,16.232 27.598,15.611 27.598,14.834 C27.598,14.057 27.543,13.436 27.487,13.003 ZM15.297,21.744 C11.486,21.744 8.387,18.644 8.387,14.834 C8.387,11.024 11.486,7.924 15.297,7.924 C19.106,7.924 22.205,11.024 22.205,14.834 C22.205,18.644 19.106,21.744 15.297,21.744 ZM15.297,10.093 C12.683,10.093 10.556,12.220 10.556,14.834 C10.556,17.448 12.683,19.575 15.297,19.575 C17.910,19.575 20.036,17.448 20.036,14.834 C20.036,12.220 17.910,10.093 15.297,10.093 Z"/>
</svg>