<svg 
 xmlns="http://www.w3.org/2000/svg"
 xmlns:xlink="http://www.w3.org/1999/xlink"
 width="31px" height="31px">
<path fill-rule="evenodd"  fill="rgb(119, 119, 119)"
 d="M23.941,30.178 C23.686,30.178 23.431,30.106 23.207,29.960 L15.313,24.835 L7.418,29.960 C6.948,30.266 6.337,30.248 5.884,29.914 C5.432,29.581 5.234,29.002 5.386,28.461 L7.859,19.680 L0.480,13.430 C0.061,13.075 -0.101,12.502 0.069,11.980 C0.239,11.459 0.707,11.092 1.254,11.052 L10.104,10.414 L14.086,1.685 C14.305,1.204 14.784,0.895 15.313,0.895 C15.841,0.895 16.320,1.204 16.540,1.685 L20.522,10.414 L29.371,11.052 C29.918,11.092 30.387,11.459 30.557,11.980 C30.726,12.502 30.564,13.075 30.146,13.430 L22.767,19.680 L25.239,28.461 C25.392,29.002 25.193,29.581 24.741,29.914 C24.504,30.089 24.223,30.178 23.941,30.178 ZM15.313,21.875 C15.568,21.875 15.824,21.948 16.047,22.093 L21.671,25.745 L19.935,19.576 C19.791,19.067 19.958,18.521 20.362,18.180 L25.877,13.508 L19.530,13.050 C19.038,13.015 18.605,12.714 18.400,12.264 L15.313,5.497 L12.226,12.264 C12.021,12.714 11.587,13.015 11.095,13.050 L4.749,13.508 L10.264,18.180 C10.667,18.521 10.834,19.067 10.691,19.576 L8.954,25.745 L14.579,22.093 C14.802,21.948 15.057,21.875 15.313,21.875 Z"/>
</svg>