<svg 
 xmlns="http://www.w3.org/2000/svg"
 xmlns:xlink="http://www.w3.org/1999/xlink"
 width="27px" height="39px">
<path fill-rule="evenodd"  fill="rgb(119, 119, 119)"
 d="M24.866,38.159 L1.697,38.159 C0.777,38.159 0.031,37.414 0.031,36.494 L0.031,15.482 C0.031,14.562 0.777,13.817 1.697,13.817 L2.679,13.817 C2.672,11.241 3.088,6.555 5.883,3.433 C7.709,1.393 10.198,0.359 13.281,0.359 C16.364,0.359 18.854,1.393 20.680,3.433 C23.474,6.555 23.890,11.241 23.884,13.817 L24.866,13.817 C25.786,13.817 26.531,14.562 26.531,15.482 L26.531,36.494 C26.531,37.414 25.786,38.159 24.866,38.159 ZM18.191,5.648 C17.009,4.330 15.402,3.690 13.281,3.690 C11.160,3.690 9.554,4.330 8.371,5.648 C6.305,7.949 6.005,11.737 6.012,13.817 L20.550,13.817 C20.558,11.737 20.258,7.949 18.191,5.648 ZM23.200,17.147 L3.362,17.147 L3.362,34.829 L23.200,34.829 L23.200,17.147 ZM11.203,25.962 C10.885,25.490 10.444,24.676 10.444,23.808 C10.444,22.254 11.451,20.604 13.318,20.604 C15.184,20.604 16.191,22.254 16.191,23.808 C16.191,24.673 15.764,25.485 15.458,25.956 L17.074,30.210 C17.171,30.466 17.136,30.753 16.981,30.978 C16.825,31.203 16.569,31.338 16.295,31.338 L10.340,31.338 C10.066,31.338 9.809,31.202 9.653,30.977 C9.498,30.750 9.464,30.462 9.564,30.206 L11.203,25.962 ZM15.088,29.673 L13.742,26.131 C13.637,25.851 13.688,25.537 13.878,25.306 C14.044,25.101 14.525,24.380 14.525,23.808 C14.525,23.793 14.492,22.269 13.318,22.269 C12.143,22.269 12.110,23.793 12.110,23.808 C12.110,24.373 12.606,25.090 12.780,25.297 C12.976,25.530 13.031,25.851 12.921,26.135 L11.555,29.673 L15.088,29.673 Z"/>
</svg>