<svg 
 xmlns="http://www.w3.org/2000/svg"
 xmlns:xlink="http://www.w3.org/1999/xlink"
 width="42px" height="29px">
<path fill-rule="evenodd"  fill="rgb(119, 119, 119)"
 d="M32.504,28.903 C23.558,28.903 8.792,28.856 8.644,28.856 C4.790,28.856 1.555,25.960 0.955,21.971 C0.487,18.859 1.804,14.700 6.806,12.511 C6.175,9.927 6.599,7.379 8.053,5.193 C9.854,2.486 13.016,0.803 16.305,0.803 C19.632,0.803 22.638,2.481 24.771,5.468 C25.914,4.805 27.185,4.452 28.483,4.452 C30.550,4.452 32.448,5.349 33.688,6.914 C34.760,8.267 35.255,10.008 35.137,11.930 C39.931,13.320 41.888,17.406 41.636,20.930 C41.363,24.770 38.388,28.903 32.504,28.903 ZM33.030,14.880 C32.567,14.813 32.154,14.556 31.891,14.170 C31.628,13.784 31.538,13.306 31.645,12.850 C32.017,11.259 31.821,9.923 31.078,8.985 C30.474,8.221 29.527,7.784 28.483,7.784 C27.405,7.784 26.338,8.247 25.478,9.087 C25.102,9.454 24.575,9.621 24.058,9.541 C23.540,9.460 23.090,9.139 22.844,8.676 C21.290,5.748 18.968,4.135 16.305,4.135 C14.117,4.135 12.017,5.248 10.825,7.039 C9.700,8.731 9.557,10.803 10.423,12.873 C10.604,13.307 10.594,13.797 10.394,14.223 C10.195,14.648 9.826,14.970 9.377,15.109 C5.735,16.229 3.818,18.610 4.248,21.475 C4.551,23.487 6.159,25.524 8.649,25.524 C8.802,25.524 23.563,25.571 32.504,25.571 C36.277,25.571 38.141,23.121 38.315,20.693 C38.492,18.202 36.927,15.439 33.030,14.880 ZM15.966,8.711 C14.292,8.859 14.250,10.033 14.276,10.389 C14.337,11.192 13.735,11.892 12.933,11.953 C12.896,11.956 12.859,11.957 12.822,11.957 C12.067,11.957 11.428,11.374 11.371,10.609 C11.238,8.844 12.284,6.109 15.710,5.807 C16.513,5.732 17.219,6.329 17.290,7.131 C17.360,7.934 16.768,8.640 15.966,8.711 Z"/>
</svg>